# Alias OBJ Model File
# Exported from SketchUp, (c) 2000-2012 Trimble Navigation Limited
# File units = inches

mtllib 1room.mtl

g Mesh1 Model

usemtl FrontColor
v 0 -0.25 -6
vt 0 6
vn 0 -1 -0
v 12 -0.25 -6
vt -12 6
v 12 -0.25 -0
vt -12 0
v 0 -0.25 -0
vt 0 0
f 1/1/1 2/2/1 3/3/1 4/4/1 

v 12 0 -6
vt 12 0
vn 0 0 1
v 0 0 -6
vt 0 -0.25
vt 12 -0.25
f 5/5/2 6/4/2 1/6/2 2/7/2 

vt 12 6
vn 0 1 -0
v 0 0 -0
v 12 0 -0
f 5/8/3 6/1/3 7/4/3 8/5/3 

v 0 3.1875 -6
vt 0 3.1875
v 12 3.1875 -6
vt 12 3.1875
f 9/9/2 6/4/2 5/5/2 10/10/2 

vn 1 0 -0
vt 6 0
vt 6 3.1875
v 0 3.1875 -0
f 7/4/4 6/11/4 9/12/4 11/9/4 

vn -1 0 -0
vt -6 0
vt -6 -0.25
f 7/4/5 6/13/5 1/14/5 4/6/5 

v -0.125 -0.25 -6
vt 0.125 6
v -0.125 -0.25 -0
vt 0.125 0
f 12/15/1 1/1/1 4/4/1 13/16/1 

v 12 -0.25 -6.125
vt -12 6.125
v -0.125 -0.25 -6.125
vt 0.125 6.125
f 14/17/1 2/2/1 1/1/1 12/15/1 15/18/1 

v 12.125 -0.25 -0
vt -12.125 0
v 12.125 -0.25 -6.125
vt -12.125 6.125
f 16/19/1 3/3/1 2/2/1 14/17/1 17/20/1 

vt 12.125 -0.25
v 12.125 3.1875 -0
vt 12.125 3.1875
v 12 3.1875 -0
f 3/7/2 16/21/2 18/22/2 19/10/2 8/5/2 

vt 6.125 -0.25
v 12.125 3.1875 -6.125
vt 6.125 3.1875
f 16/6/4 17/23/4 20/24/4 18/9/4 

vt -12.125 -0.25
vn 0 0 -1
vt -12 -0.25
v 12 3.1875 -6.125
vt -12 3.1875
vt -12.125 3.1875
f 17/25/6 14/26/6 21/27/6 20/28/6 

vt 0.125 -0.25
v -0.125 3.1875 -6.125
vt 0.125 3.1875
f 14/26/6 15/29/6 22/30/6 21/27/6 

vt -6.125 -0.25
v -0.125 3.1875 -6
vt -6 3.1875
vt -6.125 3.1875
f 15/31/5 12/14/5 23/32/5 22/33/5 

v -0.125 3.1875 -0
f 12/14/5 13/6/5 24/9/5 23/32/5 

vt -0.125 -0.25
vt -0.125 3.1875
f 13/34/2 4/6/2 7/4/2 11/9/2 24/35/2 

f 8/5/2 7/4/2 4/6/2 3/7/2 

f 8/4/5 5/13/5 2/14/5 3/6/5 

f 10/32/5 5/13/5 8/4/5 19/9/5 

vt -0.125 6.125
vt -0.125 6
vt -0.125 0
vt 12.125 0
vt 12.125 6.125
vt 12 6.125
f 22/36/3 23/37/3 24/38/3 11/4/3 9/1/3 10/8/3 19/5/3 18/39/3 20/40/3 21/41/3 

