# Alias OBJ Model File
# Exported from SketchUp, (c) 2000-2012 Trimble Navigation Limited
# File units = inches

mtllib puzzle1.mtl

g Mesh1 Model

usemtl FrontColor
v -108.568 58.7217 -11.61
vt -11.61 58.7217
vn -1 0 -0
v -108.568 -10.8125 -11.61
vt -11.61 -10.8125
v -108.568 -10.8125 85.64
vt 85.64 -10.8125
v -108.568 58.7217 85.64
vt 85.64 58.7217
v -108.568 58.7217 -10.61
vt -10.61 58.7217
f 1/1/1 2/2/1 3/3/1 4/4/1 5/5/1 

v -0.465301 0 -11.61
vt 0.465301 0
vn 0 0 -1
v -0.465301 -10.8125 -11.61
vt 0.465301 -10.8125
vt 108.568 -10.8125
vt 108.568 58.7217
v -1.4653 58.7217 -11.61
vt 1.4653 58.7217
v -1.4653 1.21002e-016 -11.61
vt 1.4653 1.21002e-016
f 6/6/2 7/7/2 2/8/2 1/9/2 8/10/2 9/11/2 

v -0.465301 0 -10.61
vt 10.61 0
vn 1 0 -0
v -0.465301 -10.8125 -10.61
vt 10.61 -10.8125
vt 11.61 -10.8125
vt 11.61 0
f 10/12/3 11/13/3 7/14/3 6/15/3 

vt 0.465301 -3.02468e-020
vn 0 2.85078e-021 -1
v 61.1098 0 -10.61
vt -61.1098 -3.02468e-020
v 61.1098 -10.8125 -10.61
vt -61.1098 -10.8125
f 10/16/4 12/17/4 13/18/4 11/7/4 

v -107.568 1.11816e-018 -10.61
vt -107.568 10.61
vn 1.86805e-021 1 2.85078e-021
v -107.568 0 85.64
vt -107.568 -85.64
v 179.245 0 85.64
vt 179.245 -85.64
v 179.245 0 47.515
vt 179.245 -47.515
v 179.245 0 27.515
vt 179.245 -27.515
v 179.245 0 -10.61
vt 179.245 10.61
vt 61.1098 10.61
vt -0.465301 10.61
f 14/19/5 15/20/5 16/21/5 17/22/5 18/23/5 19/24/5 12/25/5 10/26/5 

vt -85.64 0
vt 10.61 1.11816e-018
v -107.568 58.7217 -10.61
vt 10.61 58.7217
v -107.568 58.7217 85.64
vt -85.64 58.7217
f 15/27/3 14/28/3 20/29/3 21/30/3 

vt -107.568 58.7217
vn 0 0 1
vt -107.568 1.11816e-018
vt -0.465301 0
v -0.465301 58.7217 -10.61
vt -0.465301 58.7217
f 20/31/6 14/32/6 10/33/6 22/34/6 

v -0.465301 0 -161.462
vt 161.462 -5.63023e-017
vn 1 -1.21002e-016 -0
v -0.465301 1.20385e-016 -210.548
vt 210.548 6.40823e-017
v -0.465301 1.20385e-016 -210.86
vt 210.86 6.40823e-017
v -0.465301 58.7217 -210.86
vt 210.86 58.7217
v -0.465301 58.7217 -11.61
vt 11.61 58.7217
vt 10.61 -5.63023e-017
vt 11.61 -5.63023e-017
f 23/35/7 24/36/7 25/37/7 26/38/7 27/39/7 22/29/7 10/40/7 6/41/7 

vt -0.465301 210.548
vn 1.4936e-019 1 1.89336e-018
vt -0.465301 161.462
v 61.1098 0 -161.462
vt 61.1098 161.462
v 62.1098 0 -161.462
vt 62.1098 161.462
v 194.589 0 -161.462
vt 194.589 161.462
v 194.589 6.01923e-017 -210.86
vt 194.589 210.86
vt -0.465301 210.86
f 24/42/8 23/43/8 28/44/8 29/45/8 30/46/8 31/47/8 25/48/8 

v -1.4653 1.21002e-016 -210.548
vt 1.4653 210.548
vn -6.08095e-017 -1 -1.22628e-018
vt 0.465301 210.548
vt 0.465301 161.462
v -1.4653 1.21002e-016 -161.462
vt 1.4653 161.462
f 32/49/9 24/50/9 23/51/9 33/52/9 

v 194.589 0 -211.548
vt -194.589 211.548
vn -7.05608e-019 -1 -4.2988e-017
vt -194.589 210.86
vt 0.465301 210.86
v -1.4653 2.41386e-016 -211.548
vt 1.4653 211.548
f 34/53/10 31/54/10 25/55/10 24/50/10 32/49/10 35/56/10 

vt -210.86 6.01923e-017
v 194.589 58.7217 -211.548
vt -211.548 58.7217
vt -211.548 0
f 31/57/1 36/58/1 34/59/1

v 194.589 58.7217 -210.86
vt -210.86 58.7217
f 31/57/1 37/60/1 36/58/1

v 194.589 12.4927 -197.314
vt -197.314 12.4927
f 31/57/1 38/61/1 37/60/1

v 194.589 12.4927 -175.626
vt -175.626 12.4927
f 31/57/1 39/62/1 38/61/1

vt -161.462 0
f 30/63/1 39/62/1 31/57/1

v 194.589 41.1177 -175.626
vt -175.626 41.1177
f 39/62/1 30/63/1 40/64/1

v 194.589 58.7217 -161.462
vt -161.462 58.7217
f 41/65/1 40/64/1 30/63/1

f 40/64/1 41/65/1 37/60/1

vn 0 1 -0
v 195.589 58.7217 -161.462
vt 195.589 161.462
v 195.589 58.7217 -210.86
vt 195.589 210.86
f 37/47/11 41/46/11 42/66/11 43/67/11 

vt 194.589 58.7217
vt 194.589 0
v 195.589 0 -161.462
vt 195.589 0
vt 195.589 58.7217
f 41/68/6 30/69/6 44/70/6 42/71/6 

vt -195.589 161.462
vn 1.09189e-019 -1 -1.2207e-018
vt -194.589 161.462
v 195.589 6.01923e-017 -210.86
vt -195.589 210.86
v 195.589 6.01923e-017 -210.548
vt -195.589 210.548
f 44/72/12 30/73/12 31/54/12 45/74/12 46/75/12 

v 195.589 0 -211.548
vt -195.589 211.548
vn -1.26982e-033 -1 6.01923e-017
f 47/76/13 45/74/13 31/54/13 34/53/13 

v 195.589 58.7217 -211.548
vt 211.548 58.7217
vn 1 -2.42004e-016 1.42109e-014
vt 210.86 4.73934e-014
vt 211.548 4.73332e-014
f 48/77/14 43/38/14 45/78/14 47/79/14 

vt 195.589 211.548
vt 194.589 211.548
f 48/80/11 36/81/11 37/47/11 43/67/11 

vt -195.589 58.7217
v -1.4653 58.7217 -211.548
vt -194.589 58.7217
f 48/82/2 49/10/2 36/83/2

v 47.8847 44.9233 -211.548
vt -47.8847 44.9233
f 48/82/2 50/84/2 49/10/2

v 47.8847 12.3608 -211.548
vt -47.8847 12.3608
f 48/82/2 51/85/2 50/84/2

vt -195.589 0
f 47/86/2 51/85/2 48/82/2

vt 1.4653 2.41386e-016
f 47/86/2 35/87/2 51/85/2

vt -194.589 0
f 35/87/2 47/86/2 34/88/2

v 12.0097 12.3608 -211.548
vt -12.0097 12.3608
f 51/85/2 35/87/2 52/89/2

f 49/10/2 52/89/2 35/87/2

v 12.0097 44.9233 -211.548
vt -12.0097 44.9233
f 52/89/2 49/10/2 53/90/2

f 53/90/2 49/10/2 50/84/2

v 47.8847 44.9233 -229.048
vt -47.8847 229.048
vn 0 -1 -0
vt -47.8847 211.548
vt -12.0097 211.548
v 12.0097 44.9233 -229.048
vt -12.0097 229.048
f 54/91/15 50/92/15 53/93/15 55/94/15 

v 47.8847 12.3608 -229.048
vt -229.048 12.3608
vt -211.548 12.3608
vt -211.548 44.9233
vt -229.048 44.9233
f 56/95/1 51/96/1 50/97/1 54/98/1 

v 12.0097 12.3608 -229.048
vt 12.0097 229.048
vt 12.0097 211.548
vt 47.8847 211.548
vt 47.8847 229.048
f 57/99/11 52/100/11 51/101/11 56/102/11 

vt 229.048 44.9233
vt 211.548 44.9233
vt 211.548 12.3608
vt 229.048 12.3608
f 55/103/3 53/104/3 52/105/3 57/106/3 

v 12.0097 12.3608 -210.86
vt 210.86 12.3608
v 12.0097 44.9233 -210.86
vt 210.86 44.9233
f 58/107/3 52/105/3 53/104/3 59/108/3 

vt 12.0097 210.86
v 47.8847 12.3608 -210.86
vt 47.8847 210.86
f 52/100/11 58/109/11 60/110/11 51/101/11 

vt 12.0097 12.3608
vt -0.465301 1.20385e-016
vt 47.8847 12.3608
f 58/111/6 25/112/6 60/113/6

f 25/112/6 58/111/6 26/34/6

vt 12.0097 44.9233
f 26/34/6 58/111/6 59/114/6

f 26/34/6 59/114/6 43/71/6

v 47.8847 44.9233 -210.86
vt 47.8847 44.9233
f 61/115/6 43/71/6 59/114/6

f 60/113/6 43/71/6 61/115/6

vt 194.589 6.01923e-017
f 31/116/6 43/71/6 60/113/6

vt 195.589 6.01923e-017
f 43/71/6 31/116/6 45/117/6

vt 210.548 5.42655e-014
vn 1 -2.77139e-016 -3.28921e-016
vt 210.86 5.42655e-014
vt 161.462 58.7217
vt 161.462 5.42054e-014
f 46/118/16 45/119/16 43/38/16 42/120/16 44/121/16 

f 31/116/6 60/113/6 25/112/6

vt -210.86 12.3608
vt -210.86 44.9233
f 51/96/1 60/122/1 61/123/1 50/97/1 

vt -47.8847 210.86
vt -12.0097 210.86
f 61/124/15 59/125/15 53/93/15 50/92/15 

f 26/34/6 43/71/6 37/68/6

vt -1.4653 211.548
vt -1.4653 11.61
vt -0.465301 11.61
f 36/81/11 49/126/11 8/127/11 27/128/11 26/48/11 37/47/11 

vn -1 1.21002e-016 -3.44913e-033
vt -211.548 6.40823e-017
vt -210.548 -5.63023e-017
vt -161.462 -5.63023e-017
vt -11.61 -5.63023e-017
f 49/58/17 35/129/17 32/130/17 33/131/17 9/132/17 8/1/17 

vn -1.21002e-016 -1 -0
vt 0.465301 11.61
vt 1.4653 11.61
f 23/51/18 6/133/18 9/134/18 33/52/18 

vt -108.568 11.61
vt -108.568 10.61
f 20/19/11 22/26/11 27/128/11 8/127/11 1/135/11 5/136/11 

vt -108.568 -85.64
f 21/20/11 20/19/11 5/136/11 4/137/11 

vt -108.568 58.7217
vt -108.568 -10.8125
v 180.245 -10.8125 85.64
vt 180.245 -10.8125
v 180.245 -1 85.64
vt 180.245 -1
vt 179.245 0
vt -107.568 0
f 4/138/6 3/139/6 62/140/6 63/141/6 16/142/6 15/143/6 21/31/6 

vt -61.1098 10.61
v 180.245 -10.8125 -10.61
vt -180.245 10.61
v 260.682 -10.8125 -10.61
vt -260.682 10.61
v 261.682 -10.8125 -10.61
vt -261.682 10.61
v 261.682 -10.8125 85.64
vt -261.682 -85.64
vt -180.245 -85.64
vt 108.568 -85.64
vt 108.568 11.61
vt 0.465301 10.61
f 13/144/15 64/145/15 65/146/15 66/147/15 67/148/15 62/149/15 3/150/15 2/151/15 7/133/15 11/152/15 

vt -61.1098 0
vt -179.245 0
v 180.245 0 -10.61
vt -180.245 0
vt -180.245 -10.8125
f 12/153/2 19/154/2 68/155/2 64/156/2 13/18/2 

v 179.245 58.7217 -10.61
vt 179.245 58.7217
v 61.1098 58.7217 -10.61
vt 61.1098 58.7217
vt 61.1098 0
f 19/142/6 69/157/6 70/158/6 12/159/6 

vt 180.245 0
v 180.245 58.7217 -10.61
vt 180.245 58.7217
f 69/157/6 19/142/6 68/160/6 71/161/6 

vt -10.61 0
vt 27.515 0
v 179.245 32.75 27.515
vt 27.515 32.75
v 179.245 32.75 47.515
vt 47.515 32.75
vt 47.515 0
vt 85.64 0
v 179.245 58.7217 85.64
f 19/162/1 18/163/1 72/164/1 73/165/1 17/166/1 16/167/1 74/4/1 69/5/1 

v 180.245 0 27.515
vt 180.245 -27.515
vt 180.245 10.61
f 19/24/11 18/23/11 75/168/11 68/169/11 

v 180.245 0 47.515
vt 180.245 -47.515
f 18/23/11 17/22/11 76/170/11 75/168/11 

v 180.245 0 85.64
vt 180.245 -85.64
f 77/171/11 76/170/11 17/22/11 16/21/11 

vt -47.515 0
v 180.245 32.75 47.515
vt -47.515 32.75
v 180.245 32.75 27.515
vt -27.515 32.75
vt -27.515 0
v 180.245 58.7217 85.64
f 77/27/3 76/172/3 78/173/3 79/174/3 75/175/3 68/12/3 71/29/3 80/30/3 

v 260.682 0 85.64
vt 260.682 -85.64
v 260.682 0 -10.61
vt 260.682 10.61
f 77/171/11 81/176/11 82/177/11 68/169/11 75/168/11 76/170/11 

vt 261.682 -10.8125
v 261.682 0 85.64
vt 261.682 0
vt 260.682 0
f 77/160/6 63/141/6 62/140/6 67/178/6 83/179/6 81/180/6 

f 63/141/6 77/160/6 16/142/6

f 74/157/6 16/142/6 77/160/6 80/161/6 

f 80/171/11 71/169/11 69/24/11 74/21/11 

v 261.682 58.7217 -11.61
vt 261.682 11.61
v 62.1098 58.7217 -11.61
vt 62.1098 11.61
v 62.1098 58.7217 -161.462
v 61.1098 58.7217 -161.462
v 260.682 58.7217 -10.61
v 261.682 58.7217 -10.61
vt 261.682 10.61
f 84/181/11 85/182/11 86/45/11 87/44/11 70/25/11 69/24/11 71/169/11 88/177/11 89/183/11 

v 260.682 0 -11.61
vt -260.682 0
v 62.1098 0 -11.61
vt -62.1098 0
vt -62.1098 58.7217
vt -261.682 58.7217
v 261.682 0 -11.61
vt -261.682 0
f 90/184/2 91/185/2 85/186/2 84/187/2 92/188/2 

vt -62.1098 11.61
vt -260.682 11.61
vt -179.245 10.61
vt -61.1098 161.462
vt -62.1098 161.462
f 91/189/15 90/190/15 82/146/15 68/145/15 19/191/15 12/144/15 28/192/15 29/193/15 

vt 260.682 58.7217
f 68/160/6 82/180/6 88/194/6 71/161/6 

v 260.682 -1 -10.61
vt -260.682 -1
vt -260.682 -10.8125
f 68/155/2 82/184/2 93/195/2 65/196/2 64/156/2 

v 261.682 -1 -10.61
vt -261.682 -1
vt -261.682 -10.8125
f 93/195/2 94/197/2 66/198/2 65/196/2 

vt -85.64 -10.8125
vt 10.61 -1
v 261.682 -1 -11.6108
vt 11.6108 -1
v 261.682 58.7217 85.64
f 83/27/3 67/199/3 66/13/3 94/200/3 95/201/3 92/15/3 84/39/3 89/29/3 96/30/3 

v 260.682 58.7217 85.64
vt 261.682 -85.64
f 88/177/11 97/176/11 96/202/11 89/183/11 

f 81/167/1 97/4/1 88/5/1 82/162/1 

vt 261.682 58.7217
f 97/194/6 81/180/6 83/179/6 96/203/6 

f 28/63/1 12/162/1 70/5/1 87/65/1 

vt -61.1098 -7.81489e-014
vn 0 4.84007e-016 -1
vt -61.1098 58.7217
vt -62.1098 -7.81489e-014
f 28/204/19 87/205/19 86/186/19 29/206/19 

vt 161.462 0
f 85/39/3 91/15/3 29/207/3 86/120/3 

vt -180.245 32.75
vt -179.245 32.75
f 78/208/2 76/155/2 17/154/2 73/209/2 

vt -179.245 -27.515
vt -180.245 -27.515
vt -180.245 -47.515
vt -179.245 -47.515
f 72/210/15 79/211/15 78/212/15 73/213/15 

vt 180.245 32.75
vt 179.245 32.75
f 79/214/6 72/215/6 18/142/6 75/160/6 

f 56/113/6 54/115/6 55/114/6 57/111/6 

v 194.589 41.1177 -197.314
vt -197.314 41.1177
f 40/64/1 37/60/1 98/216/1

f 98/216/1 37/60/1 38/61/1

vt -194.589 41.1177
vt -194.589 12.4927
v 188.214 12.4927 -197.314
vt -188.214 12.4927
v 188.214 41.1177 -197.314
vt -188.214 41.1177
f 98/217/2 38/218/2 99/219/2 100/220/2 

vt -194.589 197.314
vt -194.589 175.626
v 188.214 12.4927 -175.626
vt -188.214 175.626
vt -188.214 197.314
f 38/221/15 39/222/15 101/223/15 99/224/15 

vt 194.589 12.4927
vt 194.589 41.1177
v 188.214 41.1177 -175.626
vt 188.214 41.1177
vt 188.214 12.4927
f 39/225/6 40/226/6 102/227/6 101/228/6 

vt 194.589 175.626
vt 194.589 197.314
vt 188.214 197.314
vt 188.214 175.626
f 40/229/11 98/230/11 100/231/11 102/232/11 

f 99/61/1 101/62/1 102/64/1 100/216/1 

